{
  "asset": {
    "generator": "Khronos glTF Blender I/O v1.6.16",
    "version": "2.0"
  },
  "scene": 0,
  "scenes": [
    {
      "name": "Scene",
      "nodes": [
        0
      ]
    }
  ],
  "nodes": [
    {
      "mesh": 0,
      "name": "sphere_gltf"
    }
  ],
  "materials": [
    {
      "doubleSided": true,
      "name": "weathered_brown_planks",
      "normalTexture": {
        "index": 0
      },
      "pbrMetallicRoughness": {
        "baseColorTexture": {
          "index": 1
        },
        "metallicFactor": 0,
        "metallicRoughnessTexture": {
          "index": 2
        }
      }
    }
  ],
  "meshes": [
    {
      "name": "Sphere.001",
      "primitives": [
        {
          "attributes": {
            "POSITION": 0,
            "NORMAL": 1,
            "TEXCOORD_0": 2
          },
          "indices": 3,
          "material": 0
        }
      ]
    }
  ],
  "textures": [
    {
      "sampler": 0,
      "source": 0
    },
    {
      "sampler": 0,
      "source": 1
    },
    {
      "sampler": 0,
      "source": 2
    }
  ],
  "images": [
    {
      "mimeType": "image/jpeg",
      "name": "weathered_brown_planks_nor_gl_16k",
      "uri": "textures/weathered_brown_planks_nor_gl_1k.jpg"
    },
    {
      "mimeType": "image/jpeg",
      "name": "weathered_brown_planks_diff_16k",
      "uri": "textures/weathered_brown_planks_diff_1k.jpg"
    },
    {
      "mimeType": "image/jpeg",
      "name": "weathered_brown_planks_rough_16k",
      "uri": "textures/weathered_brown_planks_rough_1k.jpg"
    }
  ],
  "accessors": [
    {
      "bufferView": 0,
      "componentType": 5126,
      "count": 53965,
      "max": [
        0.9098397493362427,
        0.9083274006843567,
        0.9110912084579468
      ],
      "min": [
        -0.9098398685455322,
        -0.9074345231056213,
        -0.9110937118530273
      ],
      "type": "VEC3"
    },
    {
      "bufferView": 1,
      "componentType": 5126,
      "count": 53965,
      "type": "VEC3"
    },
    {
      "bufferView": 2,
      "componentType": 5126,
      "count": 53965,
      "type": "VEC2"
    },
    {
      "bufferView": 3,
      "componentType": 5123,
      "count": 322170,
      "type": "SCALAR"
    }
  ],
  "bufferViews": [
    {
      "buffer": 0,
      "byteLength": 647580,
      "byteOffset": 0
    },
    {
      "buffer": 0,
      "byteLength": 647580,
      "byteOffset": 647580
    },
    {
      "buffer": 0,
      "byteLength": 431720,
      "byteOffset": 1295160
    },
    {
      "buffer": 0,
      "byteLength": 644340,
      "byteOffset": 1726880
    }
  ],
  "samplers": [
    {
      "magFilter": 9729,
      "minFilter": 9987
    }
  ],
  "buffers": [
    {
      "byteLength": 2371220,
      "uri": "weathered_brown_planks.bin"
    }
  ]
}