{
  "asset": {
    "generator": "Khronos glTF Blender I/O v1.6.16",
    "version": "2.0"
  },
  "scene": 0,
  "scenes": [
    {
      "name": "Scene",
      "nodes": [
        0
      ]
    }
  ],
  "nodes": [
    {
      "mesh": 0,
      "name": "sphere_gltf"
    }
  ],
  "materials": [
    {
      "doubleSided": true,
      "name": "mossy_rock",
      "normalTexture": {
        "index": 0
      },
      "pbrMetallicRoughness": {
        "baseColorTexture": {
          "index": 1
        },
        "metallicFactor": 0,
        "metallicRoughnessTexture": {
          "index": 2
        }
      }
    }
  ],
  "meshes": [
    {
      "name": "Sphere.001",
      "primitives": [
        {
          "attributes": {
            "POSITION": 0,
            "NORMAL": 1,
            "TEXCOORD_0": 2
          },
          "indices": 3,
          "material": 0
        }
      ]
    }
  ],
  "textures": [
    {
      "sampler": 0,
      "source": 0
    },
    {
      "sampler": 0,
      "source": 1
    },
    {
      "sampler": 0,
      "source": 2
    }
  ],
  "images": [
    {
      "mimeType": "image/jpeg",
      "name": "mossy_rock_nor_gl_8k",
      "uri": "textures/mossy_rock_nor_gl_1k.jpg"
    },
    {
      "mimeType": "image/jpeg",
      "name": "mossy_rock_diff_8k",
      "uri": "textures/mossy_rock_diff_1k.jpg"
    },
    {
      "mimeType": "image/jpeg",
      "name": "mossy_rock_rough_8k",
      "uri": "textures/mossy_rock_rough_1k.jpg"
    }
  ],
  "accessors": [
    {
      "bufferView": 0,
      "componentType": 5126,
      "count": 53904,
      "max": [
        1.4919906854629517,
        1.517456293106079,
        1.467415690422058
      ],
      "min": [
        -1.491990327835083,
        -1.509596586227417,
        -1.467430591583252
      ],
      "type": "VEC3"
    },
    {
      "bufferView": 1,
      "componentType": 5126,
      "count": 53904,
      "type": "VEC3"
    },
    {
      "bufferView": 2,
      "componentType": 5126,
      "count": 53904,
      "type": "VEC2"
    },
    {
      "bufferView": 3,
      "componentType": 5123,
      "count": 322170,
      "type": "SCALAR"
    }
  ],
  "bufferViews": [
    {
      "buffer": 0,
      "byteLength": 646848,
      "byteOffset": 0
    },
    {
      "buffer": 0,
      "byteLength": 646848,
      "byteOffset": 646848
    },
    {
      "buffer": 0,
      "byteLength": 431232,
      "byteOffset": 1293696
    },
    {
      "buffer": 0,
      "byteLength": 644340,
      "byteOffset": 1724928
    }
  ],
  "samplers": [
    {
      "magFilter": 9729,
      "minFilter": 9987
    }
  ],
  "buffers": [
    {
      "byteLength": 2369268,
      "uri": "mossy_rock.bin"
    }
  ]
}