{
  "asset": {
    "generator": "Khronos glTF Blender I/O v3.5.30",
    "version": "2.0"
  },
  "scene": 0,
  "scenes": [
    {
      "name": "Scene",
      "nodes": [
        0
      ]
    }
  ],
  "nodes": [
    {
      "mesh": 0,
      "name": "sphere_gltf"
    }
  ],
  "materials": [
    {
      "doubleSided": true,
      "name": "corrugated_iron",
      "normalTexture": {
        "index": 0,
        "scale": 0.05999999865889549
      },
      "pbrMetallicRoughness": {
        "baseColorTexture": {
          "index": 1
        },
        "metallicRoughnessTexture": {
          "index": 2
        }
      }
    }
  ],
  "meshes": [
    {
      "name": "Sphere.001",
      "primitives": [
        {
          "attributes": {
            "POSITION": 0,
            "TEXCOORD_0": 1,
            "NORMAL": 2
          },
          "indices": 3,
          "material": 0
        }
      ]
    }
  ],
  "textures": [
    {
      "sampler": 0,
      "source": 0
    },
    {
      "sampler": 0,
      "source": 1
    },
    {
      "sampler": 0,
      "source": 2
    }
  ],
  "images": [
    {
      "mimeType": "image/jpeg",
      "name": "corrugated_iron_nor_gl",
      "uri": "textures/corrugated_iron_nor_gl_1k.jpg"
    },
    {
      "mimeType": "image/jpeg",
      "name": "corrugated_iron_diff",
      "uri": "textures/corrugated_iron_diff_1k.jpg"
    },
    {
      "mimeType": "image/jpeg",
      "name": "corrugated_iron_metal-corrugated_iron_rough",
      "uri": "textures/corrugated_iron_arm_1k.jpg"
    }
  ],
  "accessors": [
    {
      "bufferView": 0,
      "componentType": 5126,
      "count": 53819,
      "max": [
        0.5683812499046326,
        0.5718383193016052,
        0.5703073143959045
      ],
      "min": [
        -0.5683813095092773,
        -0.5719837546348572,
        -0.5703058838844299
      ],
      "type": "VEC3"
    },
    {
      "bufferView": 1,
      "componentType": 5126,
      "count": 53819,
      "type": "VEC2"
    },
    {
      "bufferView": 2,
      "componentType": 5126,
      "count": 53819,
      "type": "VEC3"
    },
    {
      "bufferView": 3,
      "componentType": 5123,
      "count": 322170,
      "type": "SCALAR"
    }
  ],
  "bufferViews": [
    {
      "buffer": 0,
      "byteLength": 645828,
      "byteOffset": 0,
      "target": 34962
    },
    {
      "buffer": 0,
      "byteLength": 430552,
      "byteOffset": 645828,
      "target": 34962
    },
    {
      "buffer": 0,
      "byteLength": 645828,
      "byteOffset": 1076380,
      "target": 34962
    },
    {
      "buffer": 0,
      "byteLength": 644340,
      "byteOffset": 1722208,
      "target": 34963
    }
  ],
  "samplers": [
    {
      "magFilter": 9729,
      "minFilter": 9987
    }
  ],
  "buffers": [
    {
      "byteLength": 2366548,
      "uri": "corrugated_iron.bin"
    }
  ]
}