{
  "accessors": [
    {
      "bufferView": 2,
      "componentType": 5126,
      "count": 1793,
      "max": [
        1.017259955406189,
        1.0718764066696167,
        1.0288496017456055
      ],
      "min": [
        -1.0998340845108032,
        -1.0675657987594604,
        -1.0209293365478516
      ],
      "type": "VEC3"
    },
    {
      "bufferView": 2,
      "byteOffset": 21516,
      "componentType": 5126,
      "count": 1793,
      "max": [
        0.9999436140060425,
        0.9995465278625488,
        0.9999353885650635
      ],
      "min": [
        -0.9991296529769897,
        -0.9998512268066406,
        -0.9999996423721313
      ],
      "type": "VEC3"
    },
    {
      "bufferView": 3,
      "componentType": 5126,
      "count": 1793,
      "max": [
        0.9999998807907104,
        0.9999983906745911,
        0.8617756366729736,
        -1.0
      ],
      "min": [
        -0.9261937737464905,
        -0.8605158925056458,
        -0.9999996423721313,
        -1.0
      ],
      "type": "VEC4"
    },
    {
      "bufferView": 1,
      "componentType": 5126,
      "count": 1793,
      "max": [
        0.9762742519378662,
        1.0000001192092896
      ],
      "min": [
        0.0,
        0.0
      ],
      "type": "VEC2"
    },
    {
      "bufferView": 0,
      "componentType": 5125,
      "count": 9216,
      "type": "SCALAR"
    },
    {
      "bufferView": 2,
      "byteOffset": 43032,
      "componentType": 5126,
      "count": 312,
      "max": [
        0.24978730082511902,
        0.2501201033592224,
        0.1403484344482422
      ],
      "min": [
        -0.4731535017490387,
        -0.2501201033592224,
        -1.0506706237792969
      ],
      "type": "VEC3"
    },
    {
      "bufferView": 2,
      "byteOffset": 46776,
      "componentType": 5126,
      "count": 312,
      "max": [
        1.0,
        1.0,
        1.0
      ],
      "min": [
        -1.0,
        -1.0,
        -1.0
      ],
      "type": "VEC3"
    },
    {
      "bufferView": 3,
      "byteOffset": 28688,
      "componentType": 5126,
      "count": 312,
      "max": [
        0.7050132155418396,
        1.0,
        1.0,
        1.0
      ],
      "min": [
        -1.0,
        -1.0,
        -0.9919659495353699,
        -1.0
      ],
      "type": "VEC4"
    },
    {
      "bufferView": 1,
      "byteOffset": 14344,
      "componentType": 5126,
      "count": 312,
      "max": [
        1.0016067028045654,
        0.9999999403953552
      ],
      "min": [
        0.009636729955673218,
        0.0009161531925201416
      ],
      "type": "VEC2"
    },
    {
      "bufferView": 0,
      "byteOffset": 36864,
      "componentType": 5125,
      "count": 474,
      "type": "SCALAR"
    }
  ],
  "asset": {
    "extras": {
      "author": "Duznot (https://sketchfab.com/duz_vr)",
      "license": "CC-BY-4.0 (http://creativecommons.org/licenses/by/4.0/)",
      "source": "https://sketchfab.com/3d-models/iced-cream-0a15495102d545f4bb98369e4dedc2f4",
      "title": "Iced Cream"
    },
    "generator": "Sketchfab-12.68.0",
    "version": "2.0"
  },
  "bufferViews": [
    {
      "buffer": 0,
      "byteLength": 38760,
      "name": "floatBufferViews",
      "target": 34963
    },
    {
      "buffer": 0,
      "byteLength": 16840,
      "byteOffset": 38760,
      "byteStride": 8,
      "name": "floatBufferViews",
      "target": 34962
    },
    {
      "buffer": 0,
      "byteLength": 50520,
      "byteOffset": 55600,
      "byteStride": 12,
      "name": "floatBufferViews",
      "target": 34962
    },
    {
      "buffer": 0,
      "byteLength": 33680,
      "byteOffset": 106120,
      "byteStride": 16,
      "name": "floatBufferViews",
      "target": 34962
    }
  ],
  "buffers": [
    {
      "byteLength": 139800,
      "uri": "scene.bin"
    }
  ],
  "extensionsUsed": [
    "KHR_materials_transmission"
  ],
  "images": [
    {
      "uri": "textures/material_baseColor.png"
    },
    {
      "uri": "textures/material_metallicRoughness.png"
    },
    {
      "uri": "textures/material_normal.png"
    },
    {
      "uri": "textures/material_transmission.png"
    },
    {
      "uri": "textures/Cream_baseColor.jpeg"
    },
    {
      "uri": "textures/Cream_metallicRoughness.png"
    },
    {
      "uri": "textures/Cream_normal.png"
    }
  ],
  "materials": [
    {
      "alphaMode": "BLEND",
      "extensions": {
        "KHR_materials_transmission": {
          "transmissionFactor": 1.0,
          "transmissionTexture": {
            "index": 3
          }
        }
      },
      "name": "material",
      "normalTexture": {
        "index": 2
      },
      "occlusionTexture": {
        "index": 1
      },
      "pbrMetallicRoughness": {
        "baseColorTexture": {
          "index": 0
        },
        "metallicRoughnessTexture": {
          "index": 1
        }
      }
    },
    {
      "doubleSided": true,
      "emissiveFactor": [
        0.66,
        0.66,
        0.66
      ],
      "emissiveTexture": {
        "index": 4
      },
      "name": "Cream",
      "normalTexture": {
        "index": 6
      },
      "occlusionTexture": {
        "index": 5
      },
      "pbrMetallicRoughness": {
        "baseColorTexture": {
          "index": 4
        },
        "metallicRoughnessTexture": {
          "index": 5
        }
      }
    }
  ],
  "meshes": [
    {
      "name": "Ice_Ice_0",
      "primitives": [
        {
          "attributes": {
            "NORMAL": 1,
            "POSITION": 0,
            "TANGENT": 2,
            "TEXCOORD_0": 3
          },
          "indices": 4,
          "material": 0,
          "mode": 4
        }
      ]
    },
    {
      "name": "Cream_Cream_0",
      "primitives": [
        {
          "attributes": {
            "NORMAL": 6,
            "POSITION": 5,
            "TANGENT": 7,
            "TEXCOORD_0": 8
          },
          "indices": 9,
          "material": 1,
          "mode": 4
        }
      ]
    }
  ],
  "nodes": [
    {
      "children": [
        1
      ],
      "matrix": [
        0.004996894858777523,
        0.0,
        0.0,
        0.0,
        0.0,
        1.1095335447691752e-18,
        -0.004996894858777523,
        0.0,
        0.0,
        0.004996894858777523,
        1.1095335447691752e-18,
        0.0,
        0.0,
        0.0,
        0.0,
        1.0
      ],
      "name": "Sketchfab_model"
    },
    {
      "children": [
        2
      ],
      "matrix": [
        1.0,
        0.0,
        0.0,
        0.0,
        0.0,
        0.0,
        1.0,
        0.0,
        0.0,
        -1.0,
        0.0,
        0.0,
        0.0,
        0.0,
        0.0,
        1.0
      ],
      "name": "iced cream.fbx"
    },
    {
      "children": [
        3,
        5
      ],
      "name": "RootNode"
    },
    {
      "children": [
        4
      ],
      "matrix": [
        100.0,
        0.0,
        0.0,
        0.0,
        0.0,
        -1.629206793918314e-05,
        -99.99999999999868,
        0.0,
        0.0,
        99.99999999999868,
        -1.629206793918314e-05,
        0.0,
        0.0,
        101.91061401367188,
        0.0,
        1.0
      ],
      "name": "Ice"
    },
    {
      "mesh": 0,
      "name": "Ice_Ice_0"
    },
    {
      "children": [
        6
      ],
      "matrix": [
        75.8743152500573,
        62.76019722514392,
        -17.4426468632476,
        0.0,
        -23.141671351970775,
        0.9404307959781977,
        -97.28092637796657,
        0.0,
        -55.74893613615062,
        71.27530762106099,
        13.950864810759604,
        0.0,
        -21.305566787719727,
        138.70361328125,
        1.1652883291244507,
        1.0
      ],
      "name": "Cream"
    },
    {
      "mesh": 1,
      "name": "Cream_Cream_0"
    }
  ],
  "samplers": [
    {
      "magFilter": 9729,
      "minFilter": 9987,
      "wrapS": 10497,
      "wrapT": 10497
    }
  ],
  "scene": 0,
  "scenes": [
    {
      "name": "Sketchfab_Scene",
      "nodes": [
        0
      ]
    }
  ],
  "textures": [
    {
      "sampler": 0,
      "source": 0
    },
    {
      "sampler": 0,
      "source": 1
    },
    {
      "sampler": 0,
      "source": 2
    },
    {
      "sampler": 0,
      "source": 3
    },
    {
      "sampler": 0,
      "source": 4
    },
    {
      "sampler": 0,
      "source": 5
    },
    {
      "sampler": 0,
      "source": 6
    }
  ]
}
